<svg width="31" height="40" viewBox="0 0 31 40" fill="none" xmlns="http://www.w3.org/2000/svg">
<path d="M7.65426 10.5V14.3462C7.36149 14.2511 7.05073 14.2 6.73133 14.2H5.75702C4.16208 14.2 2.78271 15.4733 2.78271 17.15V19.5345C2.78271 24.1656 5.28416 28.4551 9.17628 30.7267C8.28018 31.2241 7.65426 32.1705 7.65426 33.3001V34.25C7.65426 35.9268 9.03362 37.2001 10.6286 37.2001H20.3716C21.9666 37.2001 23.346 35.9268 23.346 34.25V33.3001C23.346 32.1942 22.746 31.2639 21.88 30.7586C25.6525 28.6105 28.2175 24.6153 28.2175 20V17.15C28.2175 15.4733 26.8381 14.2 25.2432 14.2H24.2689C23.9495 14.2 23.6387 14.2511 23.346 14.3462V10.5C23.346 6.20008 19.7854 2.80005 15.5001 2.80005C11.2149 2.80005 7.65426 6.20008 7.65426 10.5Z" fill="white" stroke="white" stroke-width="4"/>
<path d="M15.5001 25.7001C18.7287 25.7001 21.346 23.1481 21.346 20V10.5C21.346 7.35199 18.7287 4.80005 15.5001 4.80005C12.2715 4.80005 9.65426 7.35199 9.65426 10.5V20C9.65426 23.1481 12.2715 25.7001 15.5001 25.7001ZM25.2432 16.2H24.2689C23.7306 16.2 23.2946 16.6252 23.2946 17.15V20C23.2946 24.4413 19.3675 28.005 14.7213 27.5632C10.6718 27.1779 7.70564 23.6285 7.70564 19.6616V17.15C7.70564 16.6252 7.26964 16.2 6.73133 16.2H5.75702C5.21872 16.2 4.78271 16.6252 4.78271 17.15V19.5345C4.78271 24.8569 8.67812 29.6016 14.0386 30.3224V32.35H10.6286C10.0903 32.35 9.65426 32.7752 9.65426 33.3001V34.25C9.65426 34.7749 10.0903 35.2001 10.6286 35.2001H20.3716C20.91 35.2001 21.346 34.7749 21.346 34.25V33.3001C21.346 32.7752 20.91 32.35 20.3716 32.35H16.9616V30.345C22.1808 29.6467 26.2175 25.2785 26.2175 20V17.15C26.2175 16.6252 25.7815 16.2 25.2432 16.2Z" fill="#FF5C00"/>
</svg>
