<svg width="33" height="38" viewBox="0 0 33 38" fill="none" xmlns="http://www.w3.org/2000/svg">
<path d="M26.5965 22.3165C28.4206 20.1168 29.4375 17.3651 29.4375 14.5C29.4375 11.1578 28.0538 7.96993 25.619 5.6326C23.1871 3.29795 19.9055 2 16.5 2C13.0945 2 9.81289 3.29795 7.38096 5.6326C4.94625 7.96993 3.5625 11.1578 3.5625 14.5C3.5625 17.3651 4.57939 20.1168 6.40353 22.3165L5.58185 23.6861L2.75714 28.3943C2.2542 29.1739 2 30.0695 2 31C2 32.353 2.56065 33.6333 3.53023 34.5641C4.49703 35.4922 5.79151 36 7.125 36H25.875C27.2085 36 28.503 35.4922 29.4698 34.5641C30.4394 33.6333 31 32.353 31 31C31 30.0695 30.7458 29.1739 30.2428 28.3943L27.4181 23.6861L26.5965 22.3165Z" fill="white" stroke="white" stroke-width="4"/>
<path d="M16.5 4C19.4008 4 22.1828 5.10625 24.234 7.07538C26.2852 9.04451 27.4375 11.7152 27.4375 14.5C27.4375 17.2848 26.2852 19.9555 24.234 21.9246C22.1828 23.8938 19.4008 25 16.5 25C13.5992 25 10.8172 23.8938 8.76602 21.9246C6.71484 19.9555 5.5625 17.2848 5.5625 14.5C5.5625 11.7152 6.71484 9.04451 8.76602 7.07538C10.8172 5.10625 13.5992 4 16.5 4ZM16.5 7C14.428 7 12.4409 7.79018 10.9757 9.1967C9.5106 10.6032 8.6875 12.5109 8.6875 14.5C8.6875 16.4891 9.5106 18.3968 10.9757 19.8033C12.4409 21.2098 14.428 22 16.5 22C17.526 22 18.5419 21.806 19.4897 21.4291C20.4376 21.0522 21.2988 20.4997 22.0243 19.8033C22.7497 19.1069 23.3252 18.2801 23.7178 17.3701C24.1104 16.4602 24.3125 15.4849 24.3125 14.5C24.3125 12.5109 23.4894 10.6032 22.0243 9.1967C20.5591 7.79018 18.572 7 16.5 7ZM16.5 10C17.7432 10 18.9355 10.4741 19.8146 11.318C20.6936 12.1619 21.1875 13.3065 21.1875 14.5C21.1875 15.6935 20.6936 16.8381 19.8146 17.682C18.9355 18.5259 17.7432 19 16.5 19C15.2568 19 14.0645 18.5259 13.1854 17.682C12.3064 16.8381 11.8125 15.6935 11.8125 14.5C11.8125 13.3065 12.3064 12.1619 13.1854 11.318C14.0645 10.4741 15.2568 10 16.5 10ZM7.125 34C6.2962 34 5.50134 33.6839 4.91529 33.1213C4.32924 32.5587 4 31.7956 4 31C4 30.43 4.15625 29.905 4.45312 29.455L7.29688 24.715C9.85431 26.8351 13.121 28.0011 16.5 28C20.0156 28 23.2344 26.755 25.7031 24.715L28.5469 29.455C28.8437 29.905 29 30.43 29 31C29 31.7956 28.6708 32.5587 28.0847 33.1213C27.4987 33.6839 26.7038 34 25.875 34H7.125Z" fill="#FF5C00"/>
</svg>
