<svg width="26" height="26" viewBox="0 0 26 26" fill="none" xmlns="http://www.w3.org/2000/svg">
<path d="M21.1792 9.61733H16.3826V4.82095C16.3826 3.78913 15.9658 2.91416 15.2721 2.3178C14.6097 1.74831 13.7769 1.5 12.9999 1.5C12.2228 1.5 11.39 1.74831 10.7276 2.3178C10.034 2.91416 9.61715 3.78913 9.61715 4.82095V9.61733H4.82055C3.78876 9.61733 2.91386 10.0342 2.31761 10.7279C1.74823 11.3903 1.5 12.223 1.5 13C1.5 13.777 1.74823 14.6097 2.31761 15.2721C2.91386 15.9658 3.78876 16.3827 4.82055 16.3827H9.61715V21.179C9.61715 22.2109 10.034 23.0858 10.7276 23.6822C11.39 24.2517 12.2228 24.5 12.9999 24.5C13.7769 24.5 14.6097 24.2517 15.2721 23.6822C15.9658 23.0858 16.3826 22.2109 16.3826 21.179V16.3827H21.1792C22.211 16.3827 23.086 15.9658 23.6823 15.2722C24.2517 14.6098 24.5 13.777 24.5 13C24.5 12.223 24.2517 11.3902 23.6823 10.7278C23.086 10.0342 22.211 9.61733 21.1792 9.61733Z" fill="#C2C2C2" stroke="white" stroke-width="3"/>
</svg>
