<svg width="147" height="50" viewBox="0 0 147 50" fill="none" xmlns="http://www.w3.org/2000/svg">
<path d="M22.2216 30.3996C22.2216 32.8612 21.2855 34.7581 19.4133 36.09C17.5412 37.4052 14.8847 38.0627 11.4439 38.0627C7.76702 38.0627 4.84912 37.4979 2.69021 36.3682V33.6621C5.45631 35.0447 8.37422 35.736 11.4439 35.736C14.1594 35.736 16.2171 35.2892 17.6171 34.3955C19.0338 33.4851 19.7422 32.2795 19.7422 30.779C19.7422 29.3964 19.1772 28.233 18.0472 27.2888C16.934 26.3446 15.0955 25.4173 12.5318 24.5068C9.78257 23.5121 7.85136 22.6606 6.73817 21.9525C5.62498 21.2274 4.78165 20.4181 4.20819 19.5245C3.6516 18.6141 3.3733 17.5097 3.3733 16.2114C3.3733 14.1544 4.23349 12.5274 5.95388 11.3303C7.69112 10.1332 10.1115 9.53465 13.2149 9.53465C16.1834 9.53465 19.0001 10.091 21.665 11.2038L20.7289 13.48C18.0303 12.3672 15.5256 11.8108 13.2149 11.8108C10.9717 11.8108 9.19224 12.1818 7.87666 12.9236C6.56107 13.6655 5.90328 14.694 5.90328 16.0091C5.90328 17.4423 6.40927 18.5888 7.42126 19.4487C8.45012 20.3085 10.4488 21.2696 13.4173 22.3318C15.8967 23.2254 17.7014 24.0347 18.8314 24.7597C19.9615 25.4679 20.8048 26.2772 21.3614 27.1877C21.9349 28.0981 22.2216 29.1688 22.2216 30.3996Z" fill="#FF5C00"/>
<path d="M31.8102 37.5569H29.3055V10.0658H31.8102V37.5569ZM28.9513 2.42792C28.9513 0.809307 29.4826 0 30.5452 0C31.0681 0 31.4729 0.210757 31.7596 0.632271C32.0632 1.05379 32.215 1.65234 32.215 2.42792C32.215 3.18665 32.0632 3.7852 31.7596 4.22357C31.4729 4.66195 31.0681 4.88113 30.5452 4.88113C29.4826 4.88113 28.9513 4.0634 28.9513 2.42792Z" fill="#FF5C00"/>
<path d="M60.2218 37.5569V19.7269C60.2218 16.9617 59.6399 14.9553 58.4762 13.7076C57.3124 12.4431 55.5077 11.8108 53.062 11.8108C49.773 11.8108 47.3611 12.6454 45.8263 14.3146C44.3083 15.967 43.5493 18.6562 43.5493 22.3824V37.5569H41.0446V10.0658H43.1698L43.6505 13.8341H43.8023C45.5902 10.9678 48.7695 9.53465 53.3403 9.53465C59.5809 9.53465 62.7012 12.8815 62.7012 19.5751V37.5569H60.2218Z" fill="#FF5C00"/>
<path d="M88.3046 37.5569L87.6721 33.2069H87.4697C86.0866 34.9772 84.6614 36.2334 83.194 36.9752C81.7435 37.7002 80.0231 38.0627 78.0329 38.0627C75.3342 38.0627 73.2343 37.3714 71.7332 35.9889C70.2321 34.6063 69.4816 32.6926 69.4816 30.2479C69.4816 27.567 70.5947 25.4847 72.8211 24.001C75.0644 22.5173 78.3027 21.7333 82.5362 21.649L87.7733 21.4972V19.6763C87.7733 17.0629 87.242 15.0902 86.1794 13.7582C85.1168 12.4262 83.4048 11.7602 81.0435 11.7602C78.4967 11.7602 75.8571 12.4684 73.1247 13.8847L72.1886 11.7097C75.2077 10.2934 78.1931 9.58523 81.1447 9.58523C84.1638 9.58523 86.4155 10.3692 87.8998 11.9373C89.4009 13.5053 90.1515 15.9501 90.1515 19.2716V37.5569H88.3046ZM78.1847 35.7865C81.1194 35.7865 83.4301 34.9519 85.1168 33.2828C86.8203 31.5967 87.6721 29.2615 87.6721 26.2772V23.5711L82.8651 23.7734C79.0027 23.9589 76.245 24.5658 74.5921 25.5943C72.9561 26.606 72.138 28.1909 72.138 30.349C72.138 32.0688 72.6609 33.4092 73.7066 34.3703C74.7692 35.3144 76.2619 35.7865 78.1847 35.7865Z" fill="#FF5C00"/>
<path d="M110.847 38.0627C106.613 38.0627 103.527 36.4778 101.587 33.308H101.41L101.486 35.4325C101.553 36.6802 101.587 38.0459 101.587 39.5296V50H99.0823V10.0658H101.207L101.688 13.9858H101.84C103.729 11.0184 106.748 9.53465 110.897 9.53465C114.608 9.53465 117.433 10.757 119.373 13.2018C121.329 15.6297 122.307 19.1705 122.307 23.824C122.307 28.3426 121.279 31.8496 119.221 34.345C117.18 36.8235 114.389 38.0627 110.847 38.0627ZM110.796 35.8371C113.613 35.8371 115.789 34.7918 117.323 32.7011C118.875 30.6104 119.651 27.685 119.651 23.9251C119.651 15.8489 116.733 11.8108 110.897 11.8108C107.693 11.8108 105.34 12.696 103.839 14.4664C102.337 16.2199 101.587 19.0862 101.587 23.0653V23.8746C101.587 28.174 102.304 31.2426 103.737 33.0804C105.188 34.9182 107.541 35.8371 110.796 35.8371Z" fill="#FF5C00"/>
<path d="M147 30.3996C147 32.8612 146.064 34.7581 144.192 36.09C142.32 37.4052 139.663 38.0627 136.222 38.0627C132.545 38.0627 129.627 37.4979 127.469 36.3682V33.6621C130.235 35.0447 133.153 35.736 136.222 35.736C138.938 35.736 140.996 35.2892 142.395 34.3955C143.812 33.4851 144.521 32.2795 144.521 30.779C144.521 29.3964 143.956 28.233 142.826 27.2888C141.712 26.3446 139.874 25.4173 137.31 24.5068C134.561 23.5121 132.63 22.6606 131.517 21.9525C130.403 21.2274 129.56 20.4181 128.987 19.5245C128.43 18.6141 128.152 17.5097 128.152 16.2114C128.152 14.1544 129.012 12.5274 130.732 11.3303C132.47 10.1332 134.89 9.53465 137.993 9.53465C140.962 9.53465 143.778 10.091 146.443 11.2038L145.507 13.48C142.809 12.3672 140.304 11.8108 137.993 11.8108C135.75 11.8108 133.971 12.1818 132.655 12.9236C131.339 13.6655 130.682 14.694 130.682 16.0091C130.682 17.4423 131.188 18.5888 132.2 19.4487C133.228 20.3085 135.227 21.2696 138.196 22.3318C140.675 23.2254 142.48 24.0347 143.61 24.7597C144.74 25.4679 145.583 26.2772 146.14 27.1877C146.713 28.0981 147 29.1688 147 30.3996Z" fill="#FF5C00"/>
<path d="M24.2878 12.4684C24.2878 14.1073 22.9587 15.4358 21.3193 15.4358C19.6798 15.4358 18.3508 14.1073 18.3508 12.4684C18.3508 10.8295 19.6798 9.50093 21.3193 9.50093C22.9587 9.50093 24.2878 10.8295 24.2878 12.4684Z" fill="#FF5C00"/>
<path d="M5.93701 35.6685C5.93701 37.3074 4.60796 38.636 2.9685 38.636C1.32904 38.636 0 37.3074 0 35.6685C0 34.0296 1.32904 32.7011 2.9685 32.7011C4.60796 32.7011 5.93701 34.0296 5.93701 35.6685Z" fill="#FF5C00"/>
</svg>
