<svg width="31" height="39" viewBox="0 0 31 39" fill="none" xmlns="http://www.w3.org/2000/svg">
<path d="M15.7843 0.75C19.3092 0.75 22.6898 2.13281 25.1823 4.59422C27.6748 7.05564 29.0751 10.394 29.0751 13.875C29.0751 17.356 27.6748 20.6944 25.1823 23.1558C22.6898 25.6172 19.3092 27 15.7843 27C12.2593 27 8.87873 25.6172 6.38622 23.1558C3.8937 20.6944 2.49342 17.356 2.49342 13.875C2.49342 10.394 3.8937 7.05564 6.38622 4.59422C8.87873 2.13281 12.2593 0.75 15.7843 0.75ZM15.7843 4.5C13.2664 4.5 10.8517 5.48772 9.07137 7.24587C7.291 9.00403 6.2908 11.3886 6.2908 13.875C6.2908 16.3614 7.291 18.746 9.07137 20.5041C10.8517 22.2623 13.2664 23.25 15.7843 23.25C17.031 23.25 18.2655 23.0075 19.4173 22.5364C20.5691 22.0652 21.6156 21.3747 22.4972 20.5041C23.3787 19.6336 24.078 18.6001 24.5551 17.4627C25.0322 16.3252 25.2777 15.1061 25.2777 13.875C25.2777 11.3886 24.2775 9.00403 22.4972 7.24587C20.7168 5.48772 18.3021 4.5 15.7843 4.5ZM15.7843 8.25C17.295 8.25 18.7438 8.84263 19.812 9.89753C20.8802 10.9524 21.4803 12.3832 21.4803 13.875C21.4803 15.3668 20.8802 16.7976 19.812 17.8525C18.7438 18.9074 17.295 19.5 15.7843 19.5C14.2736 19.5 12.8248 18.9074 11.7565 17.8525C10.6883 16.7976 10.0882 15.3668 10.0882 13.875C10.0882 12.3832 10.6883 10.9524 11.7565 9.89753C12.8248 8.84263 14.2736 8.25 15.7843 8.25ZM4.39211 38.25C3.38498 38.25 2.4191 37.8549 1.70695 37.1517C0.994807 36.4484 0.594727 35.4946 0.594727 34.5C0.594727 33.7875 0.784596 33.1313 1.14535 32.5688L4.60097 26.6438C7.70867 29.2939 11.6782 30.7514 15.7843 30.75C20.0563 30.75 23.9676 29.1938 26.9676 26.6438L30.4232 32.5688C30.7839 33.1313 30.9738 33.7875 30.9738 34.5C30.9738 35.4946 30.5737 36.4484 29.8616 37.1517C29.1494 37.8549 28.1835 38.25 27.1764 38.25H4.39211Z" fill="currentColor"/>
</svg>
