<svg width="30" height="40" viewBox="0 0 30 40" fill="none" xmlns="http://www.w3.org/2000/svg">
<path d="M25.5499 0.000290076C24.572 0.000530875 23.6337 0.390137 22.9397 1.08421C21.2185 0.782196 19.4636 0.606114 17.6606 0.606114C13.4081 0.606114 10.091 1.43199 7.71046 3.08501C5.35309 4.73805 4.1738 6.98376 4.1738 9.8242C4.1738 11.6169 4.5553 13.1416 5.31801 14.3988C6.10381 15.6328 7.2578 16.7509 8.78317 17.7521C10.3085 18.7299 12.9573 19.9052 16.7245 21.2789C20.2374 22.5361 22.7568 23.8195 24.2821 25.1233C25.8306 26.4271 26.6031 28.0311 26.6031 29.9403C26.6031 32.0124 25.6319 33.6769 23.6905 34.9341C21.7723 36.1681 18.9534 36.7876 15.2324 36.7876C12.5302 36.7876 9.91594 36.3873 7.38541 35.5989C7.18582 33.7021 5.5991 32.2618 3.70569 32.2587C1.65924 32.2591 0.000378317 33.9303 8.96681e-07 35.9918C-0.00140814 38.0547 1.65798 39.7278 3.70569 39.7282C4.59144 39.7259 5.4471 39.4041 6.11767 38.8211C8.64014 39.6014 11.6701 40 15.2324 40C19.9472 40 23.5891 39.0915 26.1545 37.2755C28.7199 35.4361 30 32.8156 30 29.4163C30 27.7167 29.6091 26.2398 28.8233 24.9825C28.0606 23.7253 26.9034 22.6071 25.3549 21.6293C23.8064 20.6281 21.3344 19.51 17.9369 18.2761C13.8693 16.8093 11.1292 15.4815 9.71936 14.2941C8.33267 13.1067 7.64222 11.5249 7.64222 9.54587C7.64222 7.72986 8.54076 6.30994 10.3435 5.28553C12.1462 4.2611 14.5868 3.74977 17.6606 3.74977C19.0143 3.74977 20.4262 3.9207 21.8767 4.20161C22.111 6.06604 23.6844 7.46451 25.5499 7.46646C27.5964 7.46607 29.2552 5.7949 29.2556 3.73333C29.2544 3.50026 29.2317 3.26791 29.1874 3.03913L29.2396 2.9114C29.2113 2.89999 29.183 2.89047 29.155 2.87843C28.7613 1.19295 27.2689 0.00133707 25.5501 0L25.5499 0.000290076Z" fill="url(#paint0_linear)"/>
<defs>
<linearGradient id="paint0_linear" x1="6.11767" y1="38.8211" x2="199.013" y2="6.52088" gradientUnits="userSpaceOnUse">
<stop stop-color="#FF7D00"/>
<stop offset="1" stop-color="#FF2C00"/>
</linearGradient>
</defs>
</svg>
